<?xml version="1.0" encoding="utf-8"?>
<!-- Generator: Adobe Illustrator 23.0.5, SVG Export Plug-In . SVG Version: 6.00 Build 0)  -->
<svg version="1.1" id="Capa_1" xmlns="http://www.w3.org/2000/svg" xmlns:xlink="http://www.w3.org/1999/xlink" x="0px" y="0px"
	 viewBox="0 0 154.1 32.1" style="enable-background:new 0 0 154.1 32.1;" xml:space="preserve">
<style type="text/css">
	.st0{display:none;}
	.st1{display:inline;fill:#FFFFFF;}
	.st2{display:inline;fill:#E31A13;}
	.st3{display:inline;fill:#E51610;}
	.st4{display:inline;fill:#E90E0A;}
	.st5{display:inline;fill:#EF0202;}
	.st6{display:inline;fill:#DD261C;}
	.st7{display:inline;fill:#ED0604;}
	.st8{display:inline;fill:#E11E16;}
	.st9{display:inline;fill:#EB0A07;}
	.st10{display:inline;fill:#E33E36;}
	.st11{display:inline;fill:#E53A33;}
	.st12{display:inline;fill:#DF2219;}
	.st13{display:inline;fill:#E7120D;}
	.st14{display:inline;fill:#F16866;}
	.st15{display:inline;fill:url(#SVGID_1_);}
	.st16{display:inline;fill:url(#SVGID_2_);}
	.st17{display:inline;fill:url(#SVGID_3_);}
	.st18{display:inline;fill:url(#SVGID_4_);}
	.st19{display:inline;fill:url(#SVGID_5_);}
	.st20{display:inline;fill:url(#SVGID_6_);}
	.st21{display:inline;fill:url(#SVGID_7_);}
	.st22{display:inline;fill:url(#SVGID_8_);}
	.st23{display:inline;fill:url(#SVGID_9_);}
	.st24{display:inline;fill:url(#SVGID_10_);}
	.st25{display:inline;fill:url(#SVGID_11_);}
	.st26{display:inline;fill:url(#SVGID_12_);}
	.st27{display:inline;fill:url(#SVGID_13_);}
	.st28{display:inline;fill:url(#SVGID_14_);}
	.st29{display:inline;fill:url(#SVGID_15_);}
	.st30{display:inline;fill:#EAC800;}
	.st31{display:inline;}
	.st32{fill:#FFFFFF;}
	.st33{fill:#003585;}
	.st34{fill:#003882;}
	.st35{fill:#FF6E00;}
	.st36{fill:#006FCB;}
	.st37{fill:#FFAA61;}
	.st38{display:none;fill:#006FCA;}
	.st39{display:none;fill:#FFAA61;}
	.st40{display:inline;fill:#003882;}
	.st41{fill:#FF6D00;}
	.st42{fill:#006FCA;}
</style>
<title>logo</title>
<g class="st0">
	<rect x="138.4" y="28.7" class="st1" width="15.4" height="3.2"/>
	<rect x="123" y="28.7" class="st1" width="15.4" height="3.2"/>
	<rect x="107.6" y="28.7" class="st1" width="15.4" height="3.2"/>
	<rect x="92.2" y="28.7" class="st2" width="15.4" height="3.2"/>
	<rect x="76.8" y="28.7" class="st3" width="15.4" height="3.2"/>
	<rect x="61.4" y="28.7" class="st1" width="15.4" height="3.2"/>
	<rect x="46" y="28.7" class="st4" width="15.4" height="3.2"/>
	<rect x="30.6" y="28.7" class="st1" width="15.4" height="3.2"/>
	<rect x="15.2" y="28.7" class="st1" width="15.4" height="3.2"/>
	<rect x="-0.2" y="28.7" class="st5" width="15.4" height="3.2"/>
	<rect x="138.4" y="25.5" class="st6" width="15.4" height="3.2"/>
	<rect x="123" y="25.5" class="st1" width="15.4" height="3.2"/>
	<rect x="107.6" y="25.5" class="st1" width="15.4" height="3.2"/>
	<rect x="92.2" y="25.5" class="st2" width="15.4" height="3.2"/>
	<rect x="76.8" y="25.5" class="st3" width="15.4" height="3.2"/>
	<rect x="61.4" y="25.5" class="st1" width="15.4" height="3.2"/>
	<rect x="46" y="25.5" class="st4" width="15.4" height="3.2"/>
	<rect x="30.6" y="25.5" class="st1" width="15.4" height="3.2"/>
	<rect x="15.2" y="25.5" class="st7" width="15.4" height="3.2"/>
	<rect x="-0.2" y="25.5" class="st5" width="15.4" height="3.2"/>
	<rect x="138.4" y="22.3" class="st6" width="15.4" height="3.2"/>
	<rect x="123" y="22.3" class="st1" width="15.4" height="3.2"/>
	<rect x="107.6" y="22.3" class="st1" width="15.4" height="3.2"/>
	<rect x="92.2" y="22.3" class="st2" width="15.4" height="3.2"/>
	<rect x="76.8" y="22.3" class="st3" width="15.4" height="3.2"/>
	<rect x="61.4" y="22.3" class="st1" width="15.4" height="3.2"/>
	<rect x="46" y="22.3" class="st4" width="15.4" height="3.2"/>
	<rect x="30.6" y="22.3" class="st1" width="15.4" height="3.2"/>
	<rect x="15.2" y="22.3" class="st7" width="15.4" height="3.2"/>
	<rect x="-0.2" y="22.3" class="st5" width="15.4" height="3.2"/>
	<rect x="138.4" y="19.1" class="st6" width="15.4" height="3.2"/>
	<rect x="123" y="19.1" class="st1" width="15.4" height="3.2"/>
	<rect x="107.6" y="19.1" class="st8" width="15.4" height="3.2"/>
	<rect x="92.2" y="19.1" class="st1" width="15.4" height="3.2"/>
	<rect x="76.8" y="19.1" class="st3" width="15.4" height="3.2"/>
	<rect x="61.4" y="19.1" class="st1" width="15.4" height="3.2"/>
	<rect x="46" y="19.1" class="st4" width="15.4" height="3.2"/>
	<rect x="30.6" y="19.1" class="st9" width="15.4" height="3.2"/>
	<rect x="15.2" y="19.1" class="st1" width="15.4" height="3.2"/>
	<rect x="-0.2" y="19.1" class="st5" width="15.4" height="3.2"/>
	<rect x="138.4" y="15.9" class="st6" width="15.4" height="3.2"/>
	<rect x="123" y="15.9" class="st1" width="15.4" height="3.2"/>
	<rect x="107.6" y="15.9" class="st8" width="15.4" height="3.2"/>
	<rect x="92.2" y="15.9" class="st1" width="15.4" height="3.2"/>
	<rect x="76.8" y="15.9" class="st3" width="15.4" height="3.2"/>
	<rect x="61.4" y="15.9" class="st1" width="15.4" height="3.2"/>
	<rect x="46" y="15.9" class="st1" width="15.4" height="3.2"/>
	<rect x="30.6" y="15.9" class="st9" width="15.4" height="3.2"/>
	<rect x="15.2" y="15.9" class="st1" width="15.4" height="3.2"/>
	<rect x="-0.2" y="15.9" class="st5" width="15.4" height="3.2"/>
	<rect x="138.4" y="12.7" class="st6" width="15.4" height="3.2"/>
	<rect x="123" y="12.7" class="st10" width="15.4" height="3.2"/>
	<rect x="107.6" y="12.7" class="st11" width="15.4" height="3.2"/>
	<rect x="92.2" y="12.7" class="st1" width="15.4" height="3.2"/>
	<rect x="76.8" y="12.7" class="st3" width="15.4" height="3.2"/>
	<rect x="61.4" y="12.7" class="st1" width="15.4" height="3.2"/>
	<rect x="46" y="12.7" class="st1" width="15.4" height="3.2"/>
	<rect x="30.6" y="12.7" class="st9" width="15.4" height="3.2"/>
	<rect x="15.2" y="12.7" class="st1" width="15.4" height="3.2"/>
	<rect x="-0.2" y="12.7" class="st5" width="15.4" height="3.2"/>
	<rect x="138.4" y="9.5" class="st6" width="15.4" height="3.2"/>
	<rect x="123" y="9.5" class="st12" width="15.4" height="3.2"/>
	<rect x="107.6" y="9.5" class="st1" width="15.4" height="3.2"/>
	<rect x="92.2" y="9.5" class="st1" width="15.4" height="3.2"/>
	<rect x="76.8" y="9.5" class="st3" width="15.4" height="3.2"/>
	<rect x="61.4" y="9.5" class="st1" width="15.4" height="3.2"/>
	<rect x="46" y="9.5" class="st4" width="15.4" height="3.2"/>
	<rect x="30.6" y="9.5" class="st1" width="15.4" height="3.2"/>
	<rect x="15.2" y="9.5" class="st1" width="15.4" height="3.2"/>
	<rect x="-0.2" y="9.5" class="st5" width="15.4" height="3.2"/>
	<rect x="138.4" y="6.3" class="st6" width="15.4" height="3.2"/>
	<rect x="123" y="6.3" class="st12" width="15.4" height="3.2"/>
	<rect x="107.6" y="6.3" class="st1" width="15.4" height="3.2"/>
	<rect x="92.2" y="6.3" class="st1" width="15.4" height="3.2"/>
	<rect x="76.8" y="6.3" class="st3" width="15.4" height="3.2"/>
	<rect x="61.4" y="6.3" class="st1" width="15.4" height="3.2"/>
	<rect x="46" y="6.3" class="st4" width="15.4" height="3.2"/>
	<rect x="30.6" y="6.3" class="st1" width="15.4" height="3.2"/>
	<rect x="15.2" y="6.3" class="st1" width="15.4" height="3.2"/>
	<rect x="-0.2" y="6.3" class="st5" width="15.4" height="3.2"/>
	<rect x="138.4" y="3.1" class="st6" width="15.4" height="3.2"/>
	<rect x="123" y="3.1" class="st1" width="15.4" height="3.2"/>
	<rect x="107.6" y="3.1" class="st1" width="15.4" height="3.2"/>
	<rect x="92.2" y="3.1" class="st1" width="15.4" height="3.2"/>
	<rect x="76.8" y="3.1" class="st3" width="15.4" height="3.2"/>
	<rect x="61.4" y="3.1" class="st13" width="15.4" height="3.2"/>
	<rect x="46" y="3.1" class="st14" width="15.4" height="3.2"/>
	<rect x="30.6" y="3.1" class="st1" width="15.4" height="3.2"/>
	<rect x="15.2" y="3.1" class="st1" width="15.4" height="3.2"/>
	<rect x="-0.2" y="3.1" class="st5" width="15.4" height="3.2"/>
	<rect x="138.4" y="-0.1" class="st6" width="15.4" height="3.2"/>
	<rect x="123" y="-0.1" class="st1" width="15.4" height="3.2"/>
	<rect x="107.6" y="-0.1" class="st1" width="15.4" height="3.2"/>
	<rect x="92.2" y="-0.1" class="st1" width="15.4" height="3.2"/>
	<rect x="76.8" y="-0.1" class="st3" width="15.4" height="3.2"/>
	<rect x="61.4" y="-0.1" class="st13" width="15.4" height="3.2"/>
	<rect x="46" y="-0.1" class="st1" width="15.4" height="3.2"/>
	<rect x="30.6" y="-0.1" class="st1" width="15.4" height="3.2"/>
	<rect x="15.2" y="-0.1" class="st1" width="15.4" height="3.2"/>
	<rect x="-0.2" y="-0.1" class="st1" width="15.4" height="3.2"/>
</g>
<g class="st0">
	
		<linearGradient id="SVGID_1_" gradientUnits="userSpaceOnUse" x1="23.2632" y1="6939.1499" x2="32.3422" y2="6939.1499" gradientTransform="matrix(1 0 0 1 0 -6932)">
		<stop  offset="0" style="stop-color:#F00000"/>
		<stop  offset="1" style="stop-color:#DC281E"/>
	</linearGradient>
	<path class="st15" d="M32.3,9.5L32.3,9.5c0,1.4-0.3,2.4-1.1,3c-0.8,0.7-1.8,1-3.2,1c-1.4,0-2.6-0.4-3.4-1.2s-1.3-1.9-1.3-3.3V5.3
		c0-1.4,0.4-2.6,1.2-3.3c0.8-0.8,1.9-1.2,3.3-1.2c1.5,0,2.6,0.3,3.4,1s1.2,1.7,1.1,3v0.1h-2.5c0-0.8-0.2-1.3-0.5-1.7
		c-0.3-0.3-0.8-0.5-1.5-0.5s-1.1,0.2-1.5,0.7c-0.3,0.4-0.5,1.1-0.5,2V9c0,0.9,0.2,1.6,0.5,2c0.4,0.4,0.9,0.7,1.6,0.7
		c0.6,0,1.1-0.2,1.4-0.5s0.4-0.9,0.4-1.7H32.3z"/>
	
		<linearGradient id="SVGID_2_" gradientUnits="userSpaceOnUse" x1="33.7429" y1="6939.1499" x2="43.512" y2="6939.1499" gradientTransform="matrix(1 0 0 1 0 -6932)">
		<stop  offset="0" style="stop-color:#F00000"/>
		<stop  offset="1" style="stop-color:#DC281E"/>
	</linearGradient>
	<path class="st16" d="M43.5,8.9c0,1.5-0.4,2.6-1.3,3.4c-0.9,0.8-2.1,1.2-3.6,1.2s-2.7-0.4-3.5-1.2c-0.9-0.8-1.3-2-1.3-3.4V5.4
		c0-1.5,0.4-2.6,1.3-3.4c0.9-0.8,2.1-1.2,3.5-1.2c1.5,0,2.7,0.4,3.6,1.2c0.9,0.8,1.3,2,1.3,3.4V8.9z M40.9,5.4c0-0.9-0.2-1.6-0.6-2
		c-0.4-0.5-1-0.7-1.7-0.7c-0.8,0-1.3,0.2-1.7,0.7s-0.6,1.1-0.6,2v3.5c0,0.9,0.2,1.6,0.6,2.1c0.4,0.5,1,0.7,1.7,0.7
		c0.8,0,1.3-0.2,1.7-0.7s0.6-1.1,0.6-2.1V5.4z"/>
	
		<linearGradient id="SVGID_3_" gradientUnits="userSpaceOnUse" x1="45.3" y1="6939.1001" x2="57.152" y2="6939.1001" gradientTransform="matrix(1 0 0 1 0 -6932)">
		<stop  offset="0" style="stop-color:#F00000"/>
		<stop  offset="1" style="stop-color:#DC281E"/>
	</linearGradient>
	<path class="st17" d="M51.2,10.1L51.2,10.1l2.6-9.2h3.4v12.4h-2.6V5.5h-0.1l-2.4,7.8h-1.7L48,5.6h-0.1v7.7h-2.6V0.9h3.4L51.2,10.1z
		"/>
	
		<linearGradient id="SVGID_4_" gradientUnits="userSpaceOnUse" x1="59.2181" y1="6939.1001" x2="68.0841" y2="6939.1001" gradientTransform="matrix(1 0 0 1 0 -6932)">
		<stop  offset="0" style="stop-color:#F00000"/>
		<stop  offset="1" style="stop-color:#DC281E"/>
	</linearGradient>
	<path class="st18" d="M61.8,8.8v4.5h-2.6V0.9h4.5c1.3,0,2.4,0.4,3.2,1.1s1.2,1.7,1.2,2.9S67.7,7,66.9,7.8c-0.8,0.7-1.9,1.1-3.2,1.1
		h-1.9V8.8z M61.8,7h1.9c0.6,0,1-0.2,1.3-0.6s0.5-0.9,0.5-1.5S65.3,3.8,65,3.4s-0.7-0.6-1.3-0.6h-1.9V7z"/>
	
		<linearGradient id="SVGID_5_" gradientUnits="userSpaceOnUse" x1="69.7807" y1="6939.1499" x2="78.7757" y2="6939.1499" gradientTransform="matrix(1 0 0 1 0 -6932)">
		<stop  offset="0" style="stop-color:#F00000"/>
		<stop  offset="1" style="stop-color:#DC281E"/>
	</linearGradient>
	<path class="st19" d="M72.4,8.3v5h-2.6V0.9h4c1.3,0,2.4,0.3,3.1,1C77.7,2.5,78,3.4,78,4.6c0,0.6-0.2,1.2-0.5,1.7s-0.8,0.8-1.4,1.1
		c0.7,0.2,1.2,0.6,1.5,1.1s0.5,1.1,0.5,1.9v0.9c0,0.3,0,0.7,0.1,1.1c0.1,0.4,0.2,0.7,0.5,0.8v0.2H76c-0.2-0.2-0.4-0.5-0.4-0.9
		c-0.1-0.4-0.1-0.8-0.1-1.2v-0.9c0-0.6-0.1-1.1-0.4-1.5c-0.3-0.3-0.7-0.5-1.2-0.5h-1.5V8.3z M72.4,6.5h1.4c0.6,0,1-0.2,1.3-0.5
		s0.4-0.7,0.4-1.3s-0.1-1-0.4-1.4c-0.3-0.3-0.7-0.5-1.3-0.5h-1.4V6.5z"/>
	
		<linearGradient id="SVGID_6_" gradientUnits="userSpaceOnUse" x1="79.3664" y1="6939.1001" x2="89.6664" y2="6939.1001" gradientTransform="matrix(1 0 0 1 0 -6932)">
		<stop  offset="0" style="stop-color:#F00000"/>
		<stop  offset="1" style="stop-color:#DC281E"/>
	</linearGradient>
	<path class="st20" d="M86.2,10.6h-3.4L82,13.3h-2.7l3.8-12.4h2.7l3.8,12.4H87L86.2,10.6z M83.4,8.7h2.3l-1.1-3.9h-0.1L83.4,8.7z"/>
	
		<linearGradient id="SVGID_7_" gradientUnits="userSpaceOnUse" x1="90.7309" y1="6939.1001" x2="102.5829" y2="6939.1001" gradientTransform="matrix(1 0 0 1 0 -6932)">
		<stop  offset="0" style="stop-color:#F00000"/>
		<stop  offset="1" style="stop-color:#DC281E"/>
	</linearGradient>
	<path class="st21" d="M96.6,10.1L96.6,10.1l2.6-9.2h3.4v12.4H100V5.5h-0.1l-2.4,7.8h-1.7l-2.4-7.7h-0.1v7.7h-2.6V0.9h3.4L96.6,10.1
		z"/>
	
		<linearGradient id="SVGID_8_" gradientUnits="userSpaceOnUse" x1="104.3902" y1="6939.1499" x2="114.1593" y2="6939.1499" gradientTransform="matrix(1 0 0 1 0 -6932)">
		<stop  offset="0" style="stop-color:#F00000"/>
		<stop  offset="1" style="stop-color:#DC281E"/>
	</linearGradient>
	<path class="st22" d="M114.2,8.9c0,1.5-0.4,2.6-1.3,3.4c-0.9,0.8-2.1,1.2-3.6,1.2s-2.7-0.4-3.5-1.2c-0.9-0.8-1.3-2-1.3-3.4V5.4
		c0-1.5,0.4-2.6,1.3-3.4s2.1-1.2,3.5-1.2c1.5,0,2.7,0.4,3.6,1.2s1.3,2,1.3,3.4V8.9z M111.6,5.4c0-0.9-0.2-1.6-0.6-2
		c-0.4-0.5-1-0.7-1.7-0.7c-0.8,0-1.3,0.2-1.7,0.7c-0.4,0.5-0.6,1.1-0.6,2v3.5c0,0.9,0.2,1.6,0.6,2.1s1,0.7,1.7,0.7
		c0.8,0,1.3-0.2,1.7-0.7c0.4-0.5,0.6-1.1,0.6-2.1V5.4z"/>
	
		<linearGradient id="SVGID_9_" gradientUnits="userSpaceOnUse" x1="115.6793" y1="6939" x2="124.5284" y2="6939" gradientTransform="matrix(1 0 0 1 0 -6932)">
		<stop  offset="0" style="stop-color:#F00000"/>
		<stop  offset="1" style="stop-color:#DC281E"/>
	</linearGradient>
	<path class="st23" d="M121.9,10.1c0-0.5-0.1-0.9-0.4-1.2s-0.8-0.6-1.5-0.8c-1.4-0.4-2.4-1-3.1-1.5c-0.7-0.6-1-1.4-1-2.4
		s0.4-1.8,1.2-2.5c0.8-0.6,1.8-1,3-1c1.3,0,2.4,0.3,3.1,1c0.8,0.7,1.2,1.6,1.2,2.7v0.1h-2.5c0-0.6-0.2-1.1-0.5-1.5
		c-0.3-0.3-0.8-0.5-1.3-0.5s-0.9,0.2-1.2,0.5c-0.3,0.3-0.4,0.7-0.4,1.1s0.2,0.8,0.5,1c0.3,0.3,0.9,0.6,1.6,0.9
		c1.3,0.4,2.3,0.9,2.9,1.5c0.7,0.6,1,1.4,1,2.4c0,1.1-0.4,1.9-1.2,2.5c-0.8,0.6-1.8,0.9-3.1,0.9c-1.3,0-2.4-0.3-3.3-1
		s-1.3-1.7-1.3-3V9.2h2.5c0,0.8,0.2,1.3,0.5,1.7c0.3,0.3,0.8,0.5,1.5,0.5c0.6,0,1-0.1,1.3-0.4C121.8,10.9,121.9,10.6,121.9,10.1z"/>
	
		<linearGradient id="SVGID_10_" gradientUnits="userSpaceOnUse" x1="40.63" y1="6957.5" x2="49.4591" y2="6957.5" gradientTransform="matrix(1 0 0 1 0 -6932)">
		<stop  offset="0" style="stop-color:#F00000"/>
		<stop  offset="1" style="stop-color:#DC281E"/>
	</linearGradient>
	<path class="st24" d="M49.5,21.2h-3.2v10.5h-2.6V21.2h-3.1v-1.9h8.8L49.5,21.2L49.5,21.2z"/>
	
		<linearGradient id="SVGID_11_" gradientUnits="userSpaceOnUse" x1="50.6387" y1="6957.6001" x2="60.0945" y2="6957.6001" gradientTransform="matrix(1 0 0 1 0 -6932)">
		<stop  offset="0" style="stop-color:#F00000"/>
		<stop  offset="1" style="stop-color:#DC281E"/>
	</linearGradient>
	<path class="st25" d="M60.1,19.3v8.1c0,1.4-0.4,2.5-1.3,3.3c-0.9,0.8-2,1.2-3.4,1.2s-2.5-0.4-3.4-1.2c-0.9-0.8-1.3-1.9-1.3-3.3
		v-8.1h2.6v8.1c0,0.8,0.2,1.5,0.6,1.9c0.4,0.4,0.9,0.7,1.6,0.7c0.7,0,1.2-0.2,1.6-0.7c0.4-0.4,0.6-1.1,0.6-1.9v-8.1H60.1z"/>
	
		<linearGradient id="SVGID_12_" gradientUnits="userSpaceOnUse" x1="65.3662" y1="6957.5" x2="75.6662" y2="6957.5" gradientTransform="matrix(1 0 0 1 0 -6932)">
		<stop  offset="0" style="stop-color:#F00000"/>
		<stop  offset="1" style="stop-color:#DC281E"/>
	</linearGradient>
	<path class="st26" d="M72.2,29h-3.4L68,31.7h-2.7l3.8-12.4h2.7l3.8,12.4H73L72.2,29z M69.4,27.2h2.3l-1.1-3.9h-0.1L69.4,27.2z"/>
	
		<linearGradient id="SVGID_13_" gradientUnits="userSpaceOnUse" x1="76.4993" y1="6957.6001" x2="85.9551" y2="6957.6001" gradientTransform="matrix(1 0 0 1 0 -6932)">
		<stop  offset="0" style="stop-color:#F00000"/>
		<stop  offset="1" style="stop-color:#DC281E"/>
	</linearGradient>
	<path class="st27" d="M86,19.3v8.1c0,1.4-0.4,2.5-1.3,3.3s-2,1.2-3.4,1.2s-2.5-0.4-3.4-1.2c-0.9-0.8-1.3-1.9-1.3-3.3v-8.1h2.6v8.1
		c0,0.8,0.2,1.5,0.6,1.9s0.9,0.7,1.6,0.7s1.2-0.2,1.6-0.7c0.4-0.4,0.6-1.1,0.6-1.9v-8.1H86z"/>
	
		<linearGradient id="SVGID_14_" gradientUnits="userSpaceOnUse" x1="87.1625" y1="6957.5" x2="95.9916" y2="6957.5" gradientTransform="matrix(1 0 0 1 0 -6932)">
		<stop  offset="0" style="stop-color:#F00000"/>
		<stop  offset="1" style="stop-color:#DC281E"/>
	</linearGradient>
	<path class="st28" d="M96,21.2h-3.2v10.5h-2.6V21.2h-3.1v-1.9H96V21.2z"/>
	
		<linearGradient id="SVGID_15_" gradientUnits="userSpaceOnUse" x1="96.7565" y1="6957.5498" x2="106.5257" y2="6957.5498" gradientTransform="matrix(1 0 0 1 0 -6932)">
		<stop  offset="0" style="stop-color:#F00000"/>
		<stop  offset="1" style="stop-color:#DC281E"/>
	</linearGradient>
	<path class="st29" d="M106.5,27.3c0,1.5-0.4,2.6-1.3,3.4s-2.1,1.2-3.6,1.2s-2.7-0.4-3.5-1.2c-0.9-0.8-1.3-2-1.3-3.4v-3.5
		c0-1.5,0.4-2.6,1.3-3.4s2.1-1.2,3.5-1.2c1.5,0,2.7,0.4,3.6,1.2c0.9,0.8,1.3,2,1.3,3.4V27.3z M103.9,23.8c0-0.9-0.2-1.6-0.6-2
		c-0.4-0.5-1-0.7-1.7-0.7c-0.8,0-1.3,0.2-1.7,0.7c-0.4,0.5-0.6,1.1-0.6,2v3.5c0,0.9,0.2,1.6,0.6,2.1s1,0.7,1.7,0.7s1.3-0.2,1.7-0.7
		c0.4-0.5,0.6-1.1,0.6-2.1V23.8z"/>
</g>
<g class="st0">
	<path class="st30" d="M58.3,16.9L58.3,16.9c-0.4,2.7-1.8,4.5-3.9,5.7c-2.1,1.2-5,1.8-8.5,1.8s-6.1-0.7-8-2.2
		C36,20.7,35.4,18.7,36,16l1.5-6.8c0.6-2.8,2.1-4.9,4.4-6.3c2.3-1.4,5.3-2.1,8.8-2.1s6.2,0.6,7.9,1.9c1.8,1.2,2.3,3.1,1.7,5.6v0.1
		H54c0.3-1.5,0.2-2.6-0.4-3.2C53,4.6,51.8,4.4,50,4.4c-1.6,0-2.9,0.4-3.9,1.2S44.4,7.7,44,9.3L42.4,16c-0.4,1.7-0.2,3,0.5,3.8
		s1.9,1.2,3.7,1.2c1.6,0,2.8-0.3,3.6-0.9c0.9-0.6,1.4-1.6,1.8-3.1h6.3V16.9z"/>
	<path class="st30" d="M76.2,19.4h-8.4l-7.9,12.7h-6.8L72.5,1.3h6.7l4.5,23.1H77L76.2,19.4z M69.9,15.9h5.7l-1.2-7.3h-0.1L69.9,15.9
		z"/>
	<path class="st30" d="M102.5,18.6c0.2-1,0-1.8-0.7-2.4s-2-1.1-3.9-1.8c-3.4-0.9-5.8-1.9-7.4-3.1s-2.2-2.7-1.7-4.7
		c0.4-1.8,1.7-3.3,3.8-4.4s4.7-1.6,7.6-1.6c3.3,0,5.8,0.6,7.6,1.9c1.8,1.3,2.5,3,1.9,5.2l-0.1,0.1h-6.3c0.2-1.1,0-2-0.8-2.6
		c-0.7-0.7-1.8-1-3.2-1c-1,0-1.9,0.2-2.7,0.7c-0.8,0.5-1.3,1-1.4,1.7c-0.2,1,0,1.8,0.8,2.3c0.7,0.5,2.3,1.1,4.6,1.8
		c3.1,0.8,5.4,1.8,6.8,3s1.9,2.8,1.5,4.8c-0.4,1.9-1.7,3.4-3.8,4.4c-2.1,1-4.6,1.5-7.7,1.5c-3.2,0-5.9-0.6-8.1-1.7s-3-2.9-2.4-5.3
		v-0.1h6.3c-0.3,1.3,0.1,2.3,1.1,2.8s2.3,0.8,3.8,0.8c1,0,1.9-0.2,2.7-0.7C101.9,19.8,102.3,19.2,102.5,18.6z"/>
	<polygon class="st30" points="56.5,25.5 53.9,29.5 35.6,29.5 37.3,25.5 	"/>
	<polygon class="st30" points="65,25.5 62.5,29.5 109.3,29.5 107.3,25.5 	"/>
</g>
<g class="st0">
	<g class="st31">
		<g>
			<polygon class="st32" points="64,16 65.3,16 65.3,17.6 66.1,18.2 67.4,18.2 67.5,24.7 66.3,24.7 65.2,25.5 65.2,26.7 64,26.7 			
				"/>
			<rect x="16.3" y="19.3" class="st32" width="25.1" height="4.8"/>
			<g>
				<path class="st32" d="M62.1,5.5H46.4c-0.3,0-0.6-0.3-0.6-0.6l0,0c0-0.3,0.3-0.6,0.6-0.6h15.7c0.3,0,0.6,0.3,0.6,0.6l0,0
					C62.7,5.2,62.4,5.5,62.1,5.5z"/>
				<rect x="53.4" y="5.1" class="st32" width="1.8" height="4.4"/>
				<polygon class="st32" points="57.3,5.4 54.6,6.5 55.1,7.2 59.7,5.4 				"/>
				<polygon class="st32" points="48.9,5.4 53.5,7.1 53.4,6.3 50.8,5.3 				"/>
			</g>
			<path class="st32" d="M49.2,14.8v0.9h10.1v-0.9h-1.5V14h-0.5v-3.9c0,0-0.5-1.1-2.2-1.1c-1.7,0.1-1.8,0-1.8,0s-2,0-2.1,1.5
				c0.1,1.5,0.1,3.4,0.1,3.4h-0.5v0.7L49.2,14.8z"/>
		</g>
		<path class="st32" d="M49.3,16h9.9v0.7l-0.5,0.1v0.6l0.9,0.9h1.5l1-0.8V16h1.2v10.7h-1.4v-1.3l-1-0.7h-2.3v-1.3H58
			c0,0-0.9,2.9-3.8,2.7c-2.9-0.1-3.3-1.6-3.9-2.8c-0.5,0.1-0.5,0.1-0.5,0.1l0.1,1.2l-2.5,0.1l-1,0.7v1.3h-1.2v0.1h-1.3v-1.4l-1-0.7
			h-1.2v-6.5l1.5-0.1l0.7-0.5l0.1-1.4h1.2V16h1.3l-0.1,1.5l1.1,0.8h1.6l0.8-0.8v-0.8h-0.7L49.3,16z"/>
	</g>
	<g class="st31">
		<path class="st32" d="M78.6,9V8.6c0.2,0,0.3-0.1,0.4-0.1s0.2-0.1,0.2-0.2c0.1-0.1,0.1-0.2,0.1-0.3c0-0.1,0-0.3,0-0.5v-6h-0.5
			c-0.3,0-0.5,0-0.6,0.1s-0.3,0.1-0.4,0.3c-0.1,0.1-0.2,0.3-0.3,0.5c-0.1,0.2-0.1,0.4-0.2,0.6h-0.9V0.8h7.8v2.1h-0.9
			c-0.1-0.3-0.2-0.5-0.2-0.6c0-0.1-0.1-0.2-0.2-0.3c0.1-0.1,0.1-0.2,0-0.3c-0.1-0.1-0.1-0.1-0.2-0.1s-0.2-0.1-0.3-0.1
			c-0.1,0-0.3,0-0.4,0h-0.5v6c0,0.2,0,0.4,0,0.5c0,0.1,0,0.2,0.1,0.3c0,0.1,0.1,0.1,0.1,0.2c0.1,0,0.1,0.1,0.2,0.1s0.2,0.1,0.4,0.1
			V9H78.6z"/>
		<path class="st32" d="M84.9,3h2.6v3.4c0,0.4,0,0.7,0,0.9c0,0.2,0.1,0.4,0.2,0.5S87.9,8,88,8.1c0.1,0.1,0.2,0.1,0.4,0.1
			c0.2,0,0.3,0,0.5-0.1s0.3-0.2,0.5-0.4c0.1-0.2,0.2-0.3,0.2-0.5V4.8c0-0.3,0-0.5,0-0.7c0-0.1,0-0.3-0.1-0.3c0-0.1-0.1-0.1-0.2-0.2
			c-0.1-0.1-0.2-0.1-0.4-0.2V3h2.6v4.2c0,0.3,0,0.5,0,0.7c0,0.1,0,0.3,0.1,0.3s0.1,0.2,0.2,0.2c0.1,0.1,0.2,0.1,0.4,0.1V9l-1.8,0.1
			h-0.8l0.1-0.9h-0.1c-0.4,0.3-0.8,0.6-1.1,0.7c-0.3,0.1-0.6,0.2-1,0.2c-0.5,0-0.8-0.1-1.1-0.2c-0.3-0.2-0.5-0.4-0.6-0.7
			S85.6,7.5,85.6,7V4.8c0-0.2,0-0.4,0-0.5s0-0.2,0-0.3c0-0.1,0-0.1-0.1-0.2c0-0.1-0.1-0.1-0.1-0.1s-0.1-0.1-0.2-0.1S85,3.5,84.9,3.5
			V3z"/>
		<path class="st32" d="M93.6,2.4c0-0.3,0-0.5,0-0.7s0-0.3,0-0.4S93.5,1.1,93.5,1c-0.1,0-0.1,0-0.2,0s-0.2-0.1-0.4-0.1V0.4l1.8-0.1
			h0.8v3.5l0,0c0.3-0.2,0.5-0.4,0.7-0.5s0.4-0.2,0.6-0.3s0.5-0.1,0.7-0.1c0.8,0,1.4,0.3,1.8,0.8S99.9,5,99.9,6
			c0,0.7-0.1,1.3-0.3,1.7c-0.2,0.5-0.6,0.8-1,1.1c-0.5,0.2-1,0.4-1.7,0.4S95.6,9.1,95,8.9l-0.5,0.3L93.6,9V2.4z M95.5,7
			c0,0.5,0.1,0.9,0.3,1.1c0.2,0.2,0.5,0.4,0.9,0.4s0.7-0.2,0.9-0.6c0.2-0.4,0.3-0.9,0.3-1.7s-0.1-1.4-0.3-1.8
			c-0.2-0.4-0.5-0.6-0.9-0.6c-0.2,0-0.4,0-0.6,0.1s-0.3,0.2-0.5,0.4c-0.1,0.2-0.2,0.4-0.2,0.6L95.5,7L95.5,7z"/>
		<path class="st32" d="M104.4,9.1c-0.6,0-1.2-0.1-1.7-0.3s-0.8-0.5-1.1-1c-0.3-0.5-0.4-1-0.4-1.7c0-0.5,0.1-1,0.2-1.4
			c0.2-0.4,0.4-0.7,0.7-1c0.3-0.3,0.6-0.4,1-0.6c0.4-0.1,0.8-0.2,1.3-0.2c1.1,0,1.9,0.3,2.4,0.8s0.8,1.3,0.8,2.3
			c0,0.7-0.1,1.3-0.4,1.8s-0.7,0.8-1.2,1.1C105.7,9,105.1,9.1,104.4,9.1z M103.2,5.9c0,0.9,0.1,1.5,0.3,1.9c0.2,0.4,0.5,0.6,1,0.6
			c0.2,0,0.4-0.1,0.6-0.2c0.2-0.1,0.3-0.3,0.4-0.5s0.2-0.5,0.2-0.7c0-0.3,0.1-0.6,0.1-1c0-0.9-0.1-1.5-0.3-1.9
			c-0.2-0.4-0.5-0.6-0.9-0.6c-0.3,0-0.5,0.1-0.7,0.3s-0.3,0.4-0.4,0.8C103.2,4.9,103.2,5.4,103.2,5.9z"/>
		<path class="st32" d="M109.7,7.4c0.1,0.4,0.3,0.6,0.5,0.8s0.5,0.3,0.9,0.3c0.3,0,0.6-0.1,0.8-0.2c0.2-0.1,0.3-0.3,0.3-0.6
			c0-0.2,0-0.3-0.1-0.4s-0.2-0.2-0.4-0.3c-0.2-0.1-0.5-0.2-0.9-0.4c-0.2-0.1-0.5-0.2-0.7-0.3c-0.2-0.1-0.4-0.2-0.6-0.4
			c-0.2-0.1-0.3-0.3-0.4-0.5C109,5.1,109,4.9,109,4.7c0-0.4,0.1-0.7,0.3-0.9c0.2-0.3,0.6-0.5,1-0.6s0.9-0.2,1.5-0.2
			c0.3,0,0.6,0,0.9,0s0.7,0.1,1.2,0.2v1.4H113c-0.1-0.3-0.2-0.5-0.3-0.6c-0.1-0.1-0.3-0.2-0.4-0.3s-0.3-0.1-0.5-0.1
			c-0.3,0-0.5,0.1-0.7,0.2s-0.3,0.3-0.3,0.5s0,0.3,0.1,0.4s0.2,0.2,0.3,0.3c0.2,0.1,0.5,0.2,0.9,0.4c0.4,0.2,0.8,0.3,1,0.5
			c0.3,0.2,0.5,0.4,0.6,0.6s0.2,0.5,0.2,0.8s-0.1,0.6-0.2,0.8s-0.3,0.4-0.6,0.6c-0.2,0.2-0.5,0.3-0.9,0.3c-0.3,0.1-0.7,0.1-1.1,0.1
			c-0.7,0-1.5-0.1-2.4-0.3V7.4H109.7z"/>
		<path class="st32" d="M121.8,8c-0.3,0.6-0.6,1-0.8,1.4c-0.3,0.3-0.5,0.6-0.8,0.7c-0.3,0.2-0.7,0.2-1.1,0.2c-0.3,0-0.6,0-0.9-0.1
			V8.8h0.7c0.1,0.2,0.1,0.3,0.2,0.4c0.1,0.1,0.2,0.1,0.4,0.1c0.2,0,0.3,0,0.5-0.1c0.1-0.1,0.3-0.2,0.5-0.5c0.2-0.2,0.4-0.6,0.6-1
			h-0.4L119,3.2c-0.1-0.3-0.2-0.5-0.3-0.7c-0.1-0.1-0.2-0.2-0.2-0.3c-0.1-0.1-0.2-0.1-0.3-0.1V1.7h3.3v0.4c-0.2,0-0.4,0.1-0.5,0.2
			c-0.1,0.1-0.1,0.2-0.1,0.3c0,0.2,0.1,0.4,0.2,0.8l1,2.6l1.1-2.3c0.1-0.2,0.2-0.4,0.2-0.5s0.1-0.3,0.1-0.4c0-0.2-0.1-0.3-0.2-0.4
			c-0.1-0.1-0.3-0.2-0.5-0.2V1.7h2.6v0.4c-0.1,0-0.2,0.1-0.3,0.1c-0.1,0.1-0.2,0.1-0.2,0.2c-0.1,0.1-0.2,0.2-0.2,0.4
			c-0.1,0.2-0.2,0.4-0.4,0.8L121.8,8z"/>
		<path class="st32" d="M79.2,12.3c0.1-0.2,0.1-0.3,0.2-0.5c0-0.1,0.1-0.3,0.1-0.5s-0.1-0.3-0.2-0.4c-0.1-0.1-0.3-0.2-0.5-0.2v-0.4
			h3v0.4c-0.2,0-0.3,0.1-0.5,0.1c-0.1,0.1-0.2,0.2-0.3,0.3c-0.1,0.1-0.2,0.4-0.4,0.7l-2.9,6.5H76l-2.3-6.5c-0.1-0.3-0.2-0.5-0.3-0.6
			c-0.1-0.1-0.2-0.2-0.3-0.3c-0.1-0.1-0.3-0.1-0.5-0.2v-0.4h3.9v0.4c-0.2,0-0.4,0.1-0.5,0.2c-0.1,0.1-0.2,0.2-0.2,0.4
			c0,0.1,0,0.3,0,0.4c0,0.1,0.1,0.3,0.2,0.6l1.4,4.2L79.2,12.3z"/>
		<path class="st32" d="M85.4,17.6L85.4,17.6c-0.5,0.3-0.9,0.5-1.2,0.7c-0.4,0.1-0.7,0.2-1.2,0.2c-0.4,0-0.7-0.1-1-0.2
			s-0.5-0.3-0.7-0.5s-0.2-0.5-0.2-0.7c0-0.6,0.3-1,1-1.3s1.7-0.5,3.1-0.6v-0.6c0-0.4,0-0.6-0.1-0.8s-0.2-0.3-0.4-0.4
			c-0.2-0.1-0.3-0.1-0.6-0.1c-0.2,0-0.4,0-0.6,0.1s-0.3,0.2-0.4,0.4s-0.2,0.4-0.3,0.7h-1.3v-1.1c0.4-0.2,0.8-0.3,1.1-0.4
			c0.3-0.1,0.6-0.2,0.8-0.2c0.3-0.1,0.5-0.1,0.7-0.1s0.4,0,0.7,0c0.6,0,1,0.1,1.4,0.2c0.3,0.1,0.6,0.3,0.8,0.6
			c0.2,0.3,0.3,0.7,0.3,1.2V17c0,0.3,0,0.5,0,0.6s0,0.2,0.1,0.3c0,0.1,0.1,0.1,0.1,0.2c0,0,0.1,0.1,0.2,0.1s0.2,0.1,0.4,0.1v0.4
			h-2.6L85.4,17.6z M85.2,15.6c-0.7,0-1.3,0.1-1.6,0.3c-0.3,0.2-0.5,0.5-0.5,0.9c0,0.2,0.1,0.4,0.2,0.5c0.2,0.1,0.4,0.2,0.7,0.2
			c0.2,0,0.4,0,0.6-0.1s0.3-0.2,0.5-0.4c0.1-0.2,0.2-0.3,0.2-0.5L85.2,15.6L85.2,15.6z M86.4,9.8v0.4L84,12l-0.6-0.4L85,9.8H86.4z"
			/>
		<path class="st32" d="M91.6,16.7c0,0.4,0,0.6,0,0.8c0,0.1,0.1,0.3,0.2,0.3c0.1,0.1,0.2,0.2,0.5,0.2v0.4h-3.4V18
			c0.1,0,0.2-0.1,0.3-0.1c0.1,0,0.1-0.1,0.2-0.1c0,0,0.1-0.1,0.1-0.2s0.1-0.2,0.1-0.3c0-0.1,0-0.3,0-0.6v-4.5c0-0.3,0-0.6,0-0.7
			s0-0.3,0-0.4c0-0.1-0.1-0.2-0.1-0.3s-0.1-0.1-0.2-0.2c-0.1,0-0.2-0.1-0.4-0.1v-0.4l1.9-0.1h0.9L91.6,16.7L91.6,16.7z"/>
		<path class="st32" d="M96,12.6V13c-0.2,0-0.4,0.1-0.5,0.2c-0.1,0.1-0.2,0.2-0.2,0.3c0,0.2,0.1,0.4,0.2,0.7l1,2.5l1.1-2.2
			c0.1-0.2,0.2-0.3,0.2-0.5c0-0.1,0.1-0.3,0.1-0.4c0-0.2-0.1-0.3-0.2-0.4c-0.1-0.1-0.3-0.2-0.5-0.2v-0.4h2.7V13
			c-0.1,0-0.2,0.1-0.3,0.1c-0.1,0.1-0.2,0.1-0.2,0.2c-0.1,0.1-0.2,0.2-0.3,0.4c-0.1,0.2-0.2,0.4-0.4,0.7l-2.2,4h-1.3L93.5,14
			c-0.1-0.3-0.2-0.5-0.3-0.6c-0.1-0.1-0.2-0.2-0.3-0.3C92.8,13,92.7,13,92.5,13v-0.4H96z"/>
		<path class="st32" d="M100.5,12.6h2.7v3.2c0,0.4,0,0.7,0,0.9s0.1,0.4,0.2,0.5s0.2,0.2,0.3,0.3c0.1,0.1,0.3,0.1,0.4,0.1
			c0.2,0,0.4,0,0.5-0.1c0.2-0.1,0.4-0.2,0.5-0.4c0.1-0.2,0.2-0.3,0.2-0.5v-2.2c0-0.3,0-0.5,0-0.6s0-0.2-0.1-0.3
			c0-0.1-0.1-0.1-0.2-0.2s-0.2-0.1-0.4-0.1v-0.4h2.7v4.1c0,0.3,0,0.5,0,0.6s0,0.2,0.1,0.3c0,0.1,0.1,0.1,0.2,0.2s0.2,0.1,0.5,0.1
			v0.4l-1.9,0.1h-0.8l0.1-0.8h-0.1c-0.4,0.3-0.8,0.6-1.2,0.7c-0.3,0.1-0.7,0.2-1,0.2c-0.5,0-0.9-0.1-1.2-0.2
			c-0.3-0.2-0.5-0.4-0.6-0.7c-0.1-0.3-0.2-0.7-0.2-1.1v-2.1c0-0.2,0-0.4,0-0.5s0-0.2,0-0.3s0-0.1-0.1-0.2c0-0.1-0.1-0.1-0.1-0.1
			s-0.1-0.1-0.2-0.1s-0.2-0.1-0.3-0.1V12.6z"/>
		<path class="st32" d="M111.8,16.7c0,0.4,0,0.6,0,0.8c0,0.1,0.1,0.3,0.2,0.3c0.1,0.1,0.2,0.2,0.5,0.2v0.4h-3.4V18
			c0.1,0,0.2-0.1,0.3-0.1c0.1,0,0.1-0.1,0.2-0.1c0,0,0.1-0.1,0.1-0.2s0.1-0.2,0.1-0.3c0-0.1,0-0.3,0-0.6v-4.5c0-0.3,0-0.6,0-0.7
			s0-0.3,0-0.4c0-0.1-0.1-0.2-0.1-0.3s-0.1-0.1-0.2-0.2c-0.1,0-0.2-0.1-0.4-0.1v-0.4L111,10h0.9L111.8,16.7L111.8,16.7z"/>
		<path class="st32" d="M117.7,17.6L117.7,17.6c-0.5,0.3-0.9,0.5-1.2,0.7c-0.4,0.1-0.7,0.2-1.2,0.2c-0.4,0-0.7-0.1-1-0.2
			s-0.5-0.3-0.7-0.5s-0.2-0.5-0.2-0.7c0-0.6,0.3-1,1-1.3s1.7-0.5,3.1-0.6v-0.6c0-0.4,0-0.6-0.1-0.8s-0.2-0.3-0.4-0.4
			c-0.2-0.1-0.3-0.1-0.6-0.1c-0.2,0-0.4,0-0.6,0.1s-0.3,0.2-0.4,0.4s-0.2,0.4-0.3,0.7h-1.3v-1.1c0.4-0.2,0.8-0.3,1.1-0.4
			c0.3-0.1,0.6-0.2,0.8-0.2c0.3-0.1,0.5-0.1,0.7-0.1s0.4,0,0.7,0c0.6,0,1,0.1,1.4,0.2c0.3,0.1,0.6,0.3,0.8,0.6
			c0.2,0.3,0.3,0.7,0.3,1.2V17c0,0.3,0,0.5,0,0.6s0,0.2,0.1,0.3c0,0.1,0.1,0.1,0.1,0.2c0,0,0.1,0.1,0.2,0.1s0.2,0.1,0.4,0.1v0.4
			h-2.6L117.7,17.6z M117.5,15.6c-0.7,0-1.3,0.1-1.6,0.3c-0.3,0.2-0.5,0.5-0.5,0.9c0,0.2,0.1,0.4,0.2,0.5c0.2,0.1,0.4,0.2,0.7,0.2
			c0.2,0,0.4,0,0.6-0.1s0.3-0.2,0.5-0.4c0.1-0.2,0.2-0.3,0.2-0.5L117.5,15.6L117.5,15.6z"/>
		<path class="st32" d="M122.1,16.8c0.1,0.4,0.3,0.6,0.5,0.8c0.2,0.2,0.6,0.3,1,0.3c0.3,0,0.6-0.1,0.8-0.2c0.2-0.1,0.3-0.3,0.3-0.6
			c0-0.2,0-0.3-0.1-0.4s-0.2-0.2-0.4-0.3c-0.2-0.1-0.5-0.2-1-0.4c-0.3-0.1-0.5-0.2-0.7-0.3s-0.4-0.2-0.6-0.4
			c-0.2-0.1-0.3-0.3-0.4-0.5s-0.1-0.4-0.1-0.6c0-0.3,0.1-0.7,0.4-0.9c0.2-0.3,0.6-0.5,1-0.6c0.5-0.1,1-0.2,1.5-0.2c0.3,0,0.7,0,1,0
			s0.7,0.1,1.3,0.2V14h-0.9c-0.1-0.2-0.2-0.4-0.4-0.6c-0.1-0.1-0.3-0.2-0.4-0.3c-0.2-0.1-0.3-0.1-0.6-0.1c-0.3,0-0.6,0.1-0.7,0.2
			c-0.2,0.1-0.3,0.3-0.3,0.5c0,0.1,0,0.3,0.1,0.4c0.1,0.1,0.2,0.2,0.3,0.3s0.5,0.2,1,0.4c0.4,0.2,0.8,0.3,1.1,0.5
			c0.3,0.2,0.5,0.4,0.6,0.6c0.1,0.2,0.2,0.5,0.2,0.8c0,0.3-0.1,0.6-0.2,0.8s-0.3,0.4-0.6,0.6c-0.3,0.1-0.6,0.3-0.9,0.3
			c-0.4,0.1-0.7,0.1-1.2,0.1c-0.8,0-1.6-0.1-2.6-0.3v-1.4H122.1z"/>
	</g>
	<path class="st30" d="M126,31.6H76.6c-2.9,0-5.2-2.3-5.2-5.2l0,0c0-2.9,2.3-5.2,5.2-5.2H126c2.9,0,5.2,2.3,5.2,5.2l0,0
		C131.2,29.2,128.9,31.6,126,31.6z"/>
	<ellipse class="st31" cx="128.2" cy="26.4" rx="1.2" ry="0.9"/>
	<ellipse class="st31" cx="74.1" cy="26.4" rx="1.2" ry="0.9"/>
	<g class="st31">
		<path class="st32" d="M82.2,23.5c-0.2-0.1-0.5-0.1-0.8-0.1c-0.5,0-0.9,0.1-1.3,0.3c-0.3,0.2-0.5,0.5-0.5,0.8c0,0.2,0,0.3,0.1,0.4
			s0.2,0.2,0.3,0.3c0.1,0.1,0.3,0.2,0.4,0.3c0.2,0.1,0.3,0.2,0.5,0.2c0.2,0.1,0.4,0.2,0.6,0.3c0.2,0.1,0.4,0.2,0.5,0.4
			c0.2,0.1,0.3,0.3,0.4,0.5s0.1,0.4,0.1,0.6c0,0.6-0.3,1.1-1,1.4s-1.5,0.5-2.4,0.5c-0.6,0-1.3-0.1-1.9-0.2l0,0l0.6-1.6h0.3l0.1,1.4
			c0.3,0.1,0.6,0.1,0.9,0.1c0.5,0,1-0.1,1.3-0.3c0.4-0.2,0.5-0.5,0.5-0.8c0-0.2,0-0.3-0.1-0.4s-0.2-0.2-0.3-0.3
			c-0.1-0.1-0.3-0.2-0.4-0.3c-0.2-0.1-0.3-0.1-0.5-0.2s-0.4-0.2-0.6-0.3c-0.2-0.1-0.4-0.2-0.5-0.3c-0.2-0.1-0.3-0.3-0.4-0.5
			S78,25.3,78,25.1c0-0.6,0.3-1.1,0.9-1.4s1.4-0.5,2.4-0.5c0.6,0,1.2,0.1,1.8,0.2l0,0l-0.6,1.4h-0.3V23.5z"/>
		<path class="st32" d="M89.1,25.1c-0.1,0.4-0.3,0.8-0.4,1.4l-0.5,2c0,0.1,0,0.1,0,0.2s0,0.1,0,0.1l0.1,0.1c0.1,0,0.2,0,0.3,0
			c0.1,0,0.2,0,0.4,0v0.2c-0.6,0.1-1.1,0.2-1.4,0.2s-0.5,0-0.6-0.1c-0.2-0.1-0.2-0.2-0.2-0.4v-0.1c-0.7,0.5-1.1,0.7-1.4,0.7
			c-0.5,0-0.9-0.2-1.2-0.5c-0.3-0.3-0.5-0.7-0.5-1.2c0-0.7,0.3-1.4,0.9-1.9S86,25,87,25c0.4,0,0.9,0.1,1.4,0.2
			C88.5,25.2,88.7,25.1,89.1,25.1L89.1,25.1z M87.4,25.6c-0.2-0.1-0.4-0.1-0.7-0.1c-0.5,0-0.9,0.2-1.2,0.7c-0.3,0.4-0.5,0.9-0.5,1.4
			c0,0.3,0.1,0.6,0.2,0.8c0.1,0.2,0.2,0.3,0.4,0.3c0.2,0,0.6-0.2,1.1-0.5L87.4,25.6z"/>
		<path class="st32" d="M90.1,29.2l0.8-3.3c0-0.1,0-0.2,0-0.2c0-0.1,0-0.1-0.1-0.1c0,0-0.1,0-0.2-0.1c-0.1,0-0.2,0-0.3,0
			c-0.1,0-0.2,0-0.4,0v-0.2c0.7-0.1,1.1-0.2,1.5-0.2c0.2,0,0.5,0,0.6,0.1c0.2,0.1,0.2,0.2,0.2,0.3c0,0,0,0,0,0.1
			c0.7-0.4,1.4-0.5,2-0.5c0.4,0,0.7,0.1,0.9,0.3c0.2,0.2,0.3,0.4,0.3,0.7c0,0.1,0,0.3-0.1,0.4l-0.5,2.1c0,0,0,0,0,0.1c0,0,0,0,0,0.1
			s0,0.1,0.1,0.1c0,0,0.1,0.1,0.2,0.1s0.2,0,0.3,0c0.1,0,0.2,0,0.4,0v0.2c-0.5,0.1-1,0.2-1.5,0.2c-0.3,0-0.5,0-0.6-0.1
			s-0.2-0.2-0.2-0.4c0-0.1,0-0.2,0-0.3l0.5-1.8c0-0.2,0.1-0.3,0.1-0.4c0-0.2,0-0.3-0.1-0.4s-0.2-0.1-0.4-0.1c-0.3,0-0.7,0.1-1.2,0.3
			l-0.8,3.2L90.1,29.2z"/>
		<path class="st32" d="M100.4,23.2V23c1-0.1,1.8-0.2,2.5-0.4l0.1,0.1c0,0.1-0.1,0.2-0.1,0.4c0,0.1-0.1,0.3-0.1,0.5
			s-0.1,0.3-0.1,0.5s-0.1,0.4-0.2,0.6l-0.6,2.5l-0.3,1.4c0,0.1,0,0.1,0,0.2s0,0.1,0,0.1l0.1,0.1c0.1,0,0.2,0,0.3,0
			c0.1,0,0.2,0,0.4,0v0.2c-0.6,0.1-1.1,0.2-1.4,0.2s-0.5,0-0.6-0.1c-0.2-0.1-0.2-0.2-0.2-0.4v-0.1c-0.7,0.5-1.2,0.7-1.4,0.7
			c-0.5,0-0.9-0.2-1.2-0.5c-0.3-0.3-0.5-0.7-0.5-1.2c0-0.7,0.3-1.4,0.9-1.9s1.4-0.8,2.3-0.8c0.2,0,0.5,0,0.7,0l0.5-1.8L100.4,23.2z
			 M100.7,25.6c-0.2-0.1-0.5-0.1-0.7-0.1c-0.5,0-0.9,0.2-1.2,0.7c-0.3,0.4-0.5,0.9-0.5,1.4c0,0.3,0.1,0.6,0.2,0.8
			c0.1,0.2,0.2,0.3,0.4,0.3c0.2,0,0.6-0.2,1.1-0.5L100.7,25.6z"/>
		<path class="st32" d="M106.4,25.1c0.8,0,1.4,0.2,1.9,0.5s0.7,0.8,0.7,1.3c0,0.7-0.3,1.3-0.8,1.7c-0.6,0.5-1.3,0.7-2.2,0.7
			c-0.8,0-1.4-0.2-1.9-0.5s-0.7-0.8-0.7-1.3c0-0.7,0.3-1.3,0.8-1.8C104.7,25.3,105.5,25.1,106.4,25.1z M106.3,25.5
			c-0.4,0-0.7,0.2-1,0.6s-0.4,0.9-0.4,1.4c0,0.4,0.1,0.7,0.3,1c0.2,0.2,0.4,0.4,0.8,0.4s0.7-0.2,1-0.6s0.4-0.9,0.4-1.4
			c0-0.4-0.1-0.7-0.3-1S106.6,25.5,106.3,25.5z"/>
		<path class="st32" d="M111.7,29.2l-0.7,0.1c-0.1-0.5-0.2-1.1-0.4-1.9c-0.2-0.8-0.3-1.4-0.5-1.7c0,0,0-0.1-0.1-0.1l-0.1-0.1
			c-0.1,0-0.1,0-0.2-0.1c-0.1,0-0.3,0-0.4,0v-0.2c0.6-0.1,1.1-0.2,1.4-0.2c0.2,0,0.4,0,0.5,0.1c0.1,0,0.2,0.1,0.3,0.2
			c0,0.1,0.1,0.1,0.1,0.3c0,0.1,0.1,0.2,0.1,0.4c0,0.1,0.1,0.3,0.1,0.4s0.1,0.3,0.1,0.4s0.1,0.3,0.1,0.4s0,0.2,0.1,0.3l0.1,0.5
			c0.3-0.4,0.6-0.8,0.8-1.3c0.2-0.4,0.3-0.9,0.3-1.4c0.3,0,0.5-0.1,0.8-0.2c0.2-0.1,0.5-0.1,0.7-0.2h0.1c0,0.2-0.1,0.4-0.2,0.7
			c-0.1,0.2-0.3,0.5-0.4,0.8c-0.2,0.3-0.4,0.5-0.6,0.8s-0.5,0.5-0.7,0.8c-0.2,0.2-0.5,0.5-0.7,0.7C112.1,28.9,111.9,29.1,111.7,29.2
			z"/>
		<path class="st32" d="M120.7,25.1c-0.1,0.4-0.3,0.8-0.4,1.4l-0.5,2c0,0.1,0,0.1,0,0.2s0,0.1,0,0.1l0.1,0.1c0.1,0,0.2,0,0.3,0
			c0.1,0,0.2,0,0.4,0v0.2c-0.6,0.1-1.1,0.2-1.4,0.2s-0.5,0-0.6-0.1c-0.2-0.1-0.2-0.2-0.2-0.4v-0.1c-0.7,0.5-1.1,0.7-1.4,0.7
			c-0.5,0-0.9-0.2-1.2-0.5c-0.3-0.3-0.5-0.7-0.5-1.2c0-0.7,0.3-1.4,0.9-1.9s1.4-0.8,2.4-0.8c0.4,0,0.9,0.1,1.4,0.2
			C120.1,25.2,120.4,25.1,120.7,25.1L120.7,25.1z M119.1,25.6c-0.2-0.1-0.4-0.1-0.7-0.1c-0.5,0-0.9,0.2-1.2,0.7
			c-0.3,0.4-0.5,0.9-0.5,1.4c0,0.3,0.1,0.6,0.2,0.8c0.1,0.2,0.2,0.3,0.4,0.3c0.2,0,0.6-0.2,1.1-0.5L119.1,25.6z"/>
		<path class="st32" d="M122.3,23.2V23c1-0.1,1.8-0.2,2.5-0.4l0.1,0.1c0,0.1-0.1,0.2-0.1,0.4c0,0.1-0.1,0.3-0.1,0.5
			s-0.1,0.3-0.1,0.5s-0.1,0.4-0.2,0.6l-1,3.8c0,0.1,0,0.1,0,0.2s0,0.2,0.1,0.2s0.3,0.1,0.7,0.1v0.2c-0.6,0.1-1.1,0.2-1.5,0.2
			c-0.3,0-0.5,0-0.7-0.1c-0.1-0.1-0.2-0.2-0.2-0.4c0-0.1,0-0.2,0.1-0.3l1.3-5.2L122.3,23.2z"/>
	</g>
</g>
<g>
	<path class="st33" d="M45.1,25.6c0.1-1.1,0.4-2.6,1.2-4c0.3-0.5,0.5-0.8,0.9-1.4c0.9-1.3,1.9-2.4,2.5-3.1c2.2-2.3,5.2-3.9,5.8-4.2
		C63.4,8.7,72.7,9,72.7,9c2.2,0.1,7.9,0.3,13.9,3.4c0.3,0.2,3.8,2,7.2,5.3c1,1,1.7,1.9,2.4,3c1.1,1.9,1.6,3.7,1.8,4.9
		c-0.2-1.4-0.7-3.5-1.8-5.8C94.3,16,91.7,14,90.3,13c-0.5-0.4-2.2-1.6-5.6-2.9c-2.1-0.8-6.3-2.4-12-2.7c-1.6-0.1-7.5-0.2-14.2,2.5
		c-3.9,1.6-6,3.2-6.9,4c-1.1,0.9-2.7,2.4-4.2,5C45.8,21.5,45.3,24,45.1,25.6z"/>
	<g>
		<g>
			<g>
				<path class="st34" d="M74.1,19c-0.1,0-0.2,0-0.3-0.1l-2-2.1l-2,2.1C69.8,19,69.7,19,69.6,19h-7.3c-0.2,0-0.3-0.1-0.3-0.2
					c-0.1-0.1,0-0.3,0.1-0.4l9.6-8.8c0.1-0.1,0.2-0.1,0.3-0.1s0.2,0,0.3,0.1l9.6,8.8c0.1,0.1,0.2,0.3,0.1,0.4S81.7,19,81.5,19H74.1z
					"/>
				<path class="st34" d="M71.9,9.9l9.6,8.8h-7.4l-2.2-2.4l-2.2,2.4h-7.3L71.9,9.9 M71.9,9.1c-0.2,0-0.4,0.1-0.5,0.2l-9.6,8.8
					c-0.2,0.2-0.3,0.5-0.2,0.8s0.4,0.5,0.7,0.5h7.3c0.2,0,0.4-0.1,0.5-0.2l1.7-1.8l1.7,1.8c0.1,0.1,0.3,0.2,0.5,0.2h7.4
					c0.3,0,0.6-0.2,0.7-0.5s0-0.6-0.2-0.8l-9.6-8.8C72.3,9.2,72.1,9.1,71.9,9.1L71.9,9.1z"/>
			</g>
			<polygon class="st35" points="66,18.4 69.7,18.4 71.9,16.1 74.1,18.4 77.6,18.2 71.8,12.8 			"/>
			<polygon class="st36" points="62.3,18.6 64.4,18.6 71.8,11.5 79.6,18.7 81.6,18.7 71.9,9.9 			"/>
			<polygon class="st37" points="71.8,11.5 79.6,18.6 77.7,18.6 71.8,13 65.9,18.6 64.2,18.6 			"/>
			<polygon class="st38" points="71.8,13 77.9,18.6 75.4,18.6 71.8,15 68.2,18.6 66,18.6 			"/>
			<polyline class="st39" points="68.2,18.6 69.6,18.6 71.9,16.2 74.1,18.5 75.5,18.4 71.8,15 			"/>
			<g>
				<path class="st32" d="M62,21.2c-0.2,0-0.3-0.1-0.4-0.2c-0.1-0.1,0-0.3,0.1-0.4l3.4-2.8c0.1-0.1,0.2-0.1,0.2-0.1
					c0,0,4.4,0.1,4.4,0.1c0.2,0,0.3,0.1,0.3,0.2s0,0.3-0.1,0.4L67,21.1c-0.1,0.1-0.2,0.1-0.2,0.1H62z"/>
				<path class="st34" d="M65.4,18.1l4.4,0.1l-3.1,2.7H62L65.4,18.1 M65.4,17.3c-0.2,0-0.3,0.1-0.5,0.2l-3.4,2.8
					c-0.2,0.2-0.3,0.5-0.2,0.8c0.1,0.3,0.4,0.5,0.7,0.5h4.7c0.2,0,0.4-0.1,0.5-0.2l3.1-2.7c0.2-0.2,0.3-0.5,0.2-0.8
					c-0.1-0.3-0.4-0.5-0.7-0.5L65.4,17.3C65.4,17.3,65.4,17.3,65.4,17.3L65.4,17.3z"/>
			</g>
			<g class="st0">
				<path class="st1" d="M62,29.3c-3.6,0-6.8-2.3-8-5.6s-0.2-7.2,2.6-9.4l3.4-2.8c1.5-1.2,3.4-1.9,5.4-1.9c0,0,4.6,0.1,4.6,0.1
					c3.5,0.1,6.6,2.3,7.8,5.6c1.2,3.3,0.3,7-2.4,9.3l-3.1,2.7c-1.6,1.4-3.6,2.1-5.6,2.1H62z"/>
				<path class="st40" d="M65.4,18.1l4.4,0.1l-3.1,2.7H62L65.4,18.1 M65.4,1.1c-3.9,0-7.7,1.4-10.8,3.9l-3.4,2.8
					c-5.6,4.6-7.6,12.1-5.2,18.9c2.4,6.8,8.8,11.3,16,11.3h4.7c4.1,0,8.1-1.5,11.2-4.2l3.1-2.7c5.3-4.6,7.1-12.1,4.7-18.6
					c-2.4-6.6-8.7-11-15.7-11.1l-4.4-0.1C65.6,1.1,65.5,1.1,65.4,1.1L65.4,1.1z"/>
			</g>
			<g>
				<path class="st32" d="M77.1,21.2c-0.1,0-0.2,0-0.2-0.1l-3.1-2.7c-0.1-0.1-0.2-0.3-0.1-0.4s0.2-0.2,0.3-0.2c0,0,4.4-0.1,4.4-0.1
					c0.1,0,0.2,0,0.2,0.1l3.4,2.8c0.1,0.1,0.2,0.3,0.1,0.4c-0.1,0.1-0.2,0.2-0.4,0.2H77.1z"/>
				<path class="st34" d="M78.5,18.1l3.4,2.8h-4.7l-3.1-2.7L78.5,18.1 M78.5,17.3C78.5,17.3,78.5,17.3,78.5,17.3L74,17.4
					c-0.3,0-0.6,0.2-0.7,0.5c-0.1,0.3,0,0.6,0.2,0.8l3.1,2.7c0.1,0.1,0.3,0.2,0.5,0.2h4.7c0.3,0,0.6-0.2,0.7-0.5
					c0.1-0.3,0-0.6-0.2-0.8L79,17.5C78.8,17.4,78.7,17.3,78.5,17.3L78.5,17.3z"/>
			</g>
		</g>
		<g>
			<g>
				<path class="st34" d="M71.9,12.3c-0.1,0-0.2,0-0.3-0.1l-9.6-8.8C62,3.3,61.9,3.2,62,3c0.1-0.1,0.2-0.2,0.3-0.2h7.3
					c0.1,0,0.2,0,0.3,0.1l2,2.1l2-2.1c0.1-0.1,0.2-0.1,0.3-0.1h7.4c0.2,0,0.3,0.1,0.3,0.2c0.1,0.1,0,0.3-0.1,0.4l-9.6,8.8
					C72.1,12.3,72,12.3,71.9,12.3z"/>
				<path class="st34" d="M81.5,3.2L81.5,3.2 M81.5,3.2l-9.6,8.8l-9.6-8.8h7.3l2.2,2.4l2.2-2.4H81.5 M81.5,2.4L81.5,2.4h-7.4
					c-0.2,0-0.4,0.1-0.5,0.2l-1.7,1.8l-1.7-1.8c-0.1-0.1-0.3-0.2-0.5-0.2h-7.3c-0.3,0-0.6,0.2-0.7,0.5c-0.1,0.3,0,0.6,0.2,0.8
					l9.6,8.8c0.1,0.1,0.3,0.2,0.5,0.2c0.2,0,0.4-0.1,0.5-0.2L82,3.7c0.2-0.1,0.3-0.3,0.3-0.6C82.3,2.7,81.9,2.4,81.5,2.4L81.5,2.4z
					 M81.5,3.9L81.5,3.9L81.5,3.9L81.5,3.9z"/>
			</g>
			<polygon class="st36" points="62.3,3.2 64.4,3.2 71.8,10.3 79.6,3.1 81.6,3.1 71.9,11.9 			"/>
			<polygon class="st41" points="71.8,10.3 79.6,3.2 77.7,3.2 71.8,8.8 65.9,3.2 64.2,3.2 			"/>
			<polygon class="st42" points="71.8,8.8 77.9,3.2 75.4,3.2 71.8,6.8 68.2,3.2 66,3.2 			"/>
			<polyline class="st35" points="68.2,3.2 69.6,3.2 71.9,5.6 74.1,3.3 75.5,3.4 71.8,6.8 			"/>
			<g>
				<path class="st32" d="M65.4,4.1c-0.1,0-0.2,0-0.2-0.1l-3.4-2.8c-0.1-0.1-0.2-0.3-0.1-0.4c0.1-0.1,0.2-0.2,0.4-0.2h4.7
					c0.1,0,0.2,0,0.2,0.1l3.1,2.7c0.1,0.1,0.2,0.3,0.1,0.4C70.1,3.9,70,4,69.8,4C69.8,4,65.4,4.1,65.4,4.1z"/>
				<path class="st34" d="M66.8,1l3.1,2.7l-4.4,0.1L62,1H66.8 M66.8,0.2H62c-0.3,0-0.6,0.2-0.7,0.5c-0.1,0.3,0,0.6,0.2,0.8l3.4,2.8
					c0.1,0.1,0.3,0.2,0.5,0.2c0,0,0,0,0,0l4.4-0.1c0.3,0,0.6-0.2,0.7-0.5c0.1-0.3,0-0.6-0.2-0.8l-3.1-2.7
					C67.1,0.3,66.9,0.2,66.8,0.2L66.8,0.2z"/>
			</g>
			<g>
				<path class="st32" d="M65.4,4.1c-0.1,0-0.2,0-0.2-0.1l-3.4-2.8c-0.1-0.1-0.2-0.3-0.1-0.4c0.1-0.1,0.2-0.2,0.4-0.2h4.7
					c0.1,0,0.2,0,0.2,0.1l3.1,2.7c0.1,0.1,0.2,0.3,0.1,0.4C70.1,3.9,70,4,69.8,4C69.8,4,65.4,4.1,65.4,4.1z"/>
				<path class="st34" d="M66.8,1l3.1,2.7l-4.4,0.1L62,1H66.8 M66.8,0.2H62c-0.3,0-0.6,0.2-0.7,0.5c-0.1,0.3,0,0.6,0.2,0.8l3.4,2.8
					c0.1,0.1,0.3,0.2,0.5,0.2c0,0,0,0,0,0l4.4-0.1c0.3,0,0.6-0.2,0.7-0.5c0.1-0.3,0-0.6-0.2-0.8l-3.1-2.7
					C67.1,0.3,66.9,0.2,66.8,0.2L66.8,0.2z"/>
			</g>
			<g>
				<path class="st32" d="M74.1,4c-0.2,0-0.3-0.1-0.3-0.2c-0.1-0.1,0-0.3,0.1-0.4l3.1-2.7c0.1-0.1,0.2-0.1,0.2-0.1h4.7
					c0.2,0,0.3,0.1,0.4,0.2c0.1,0.1,0,0.3-0.1,0.4L78.7,4c-0.1,0.1-0.2,0.1-0.2,0.1C78.5,4.1,74.1,4,74.1,4z"/>
				<path class="st34" d="M81.9,1L81.9,1 M81.9,1l-3.4,2.8l-4.4-0.1L77.1,1H81.9 M81.9,0.2L81.9,0.2h-4.7c-0.2,0-0.4,0.1-0.5,0.2
					l-3.1,2.7c-0.2,0.2-0.3,0.5-0.2,0.8c0.1,0.3,0.4,0.5,0.7,0.5l4.4,0.1c0,0,0,0,0,0c0.2,0,0.3-0.1,0.5-0.2l3.3-2.7
					c0.2-0.1,0.3-0.4,0.3-0.6C82.6,0.6,82.3,0.2,81.9,0.2L81.9,0.2z M81.9,1.7L81.9,1.7L81.9,1.7L81.9,1.7z"/>
			</g>
		</g>
	</g>
</g>
<g>
	<path class="st33" d="M52.9,31.4l-2.6-7.5l2,0l1.7,6l1.7-6l2,0l-2.6,7.5L52.9,31.4z"/>
	<path class="st33" d="M63.1,28.9l-3.8,0c0.1,1,0.5,1.2,1,1.2c0.5,0,0.8-0.3,0.9-0.7l1.8,0c-0.3,1.3-1.4,2.1-2.8,2.1
		c-1.6,0-2.8-1-2.8-3c0-1.7,1.1-3.1,2.9-3.1c1.8,0,2.8,1.5,2.8,3C63.1,28.5,63.1,28.7,63.1,28.9z M59.3,27.7l1.9,0
		c-0.1-0.7-0.4-1-0.9-1C59.8,26.7,59.4,27,59.3,27.7z"/>
	<path class="st33" d="M69.1,31.4l-2.2,0l-0.9-1.8l-0.9,1.8l-2.1,0l1.9-3l-1.8-2.9l2.2,0l0.9,1.7l0.8-1.7l2.1,0l-1.9,2.9L69.1,31.4z
		"/>
	<path class="st33" d="M75.7,26.3c0,1.5-0.9,2.3-2,2.4c-0.4,0-0.7,0.1-1.1,0.1l-0.8,0l0,2.6l-1.9,0l0-7.5l2.7,0c0.4,0,0.7,0,1.1,0.1
		C74.7,24,75.7,24.8,75.7,26.3z M73.7,26.3c0-0.6-0.3-0.9-0.8-0.9c-0.1,0-0.3,0-0.5,0l-0.7,0l0,1.8l0.7,0c0.2,0,0.4,0,0.5,0
		C73.5,27.1,73.7,26.9,73.7,26.3z"/>
	<path class="st33" d="M79.4,30.5l-0.2,0.6c-0.4,0.3-0.9,0.4-1.4,0.4c-0.9,0-1.8-0.6-1.8-1.7c0-1.2,1.1-2,3-2l0.4,0l0-0.1
		c0-0.1,0-0.2,0-0.4c0-0.3-0.3-0.6-0.7-0.6c-0.4,0-0.7,0.3-0.7,0.8l-1.8,0c0-1.4,1.2-2.1,2.5-2.1c1.7,0,2.3,0.8,2.4,1.9
		c0,0.3,0,0.6,0,1l0,1.6c0,0.4,0,0.8,0.1,1.5l-1.8,0L79.4,30.5z M79.4,29.3l0-0.4c-0.8-0.1-1.4,0.2-1.4,0.7c0,0.3,0.3,0.5,0.6,0.5
		C78.9,30.2,79.4,29.9,79.4,29.3z"/>
	<path class="st33" d="M87.6,27.8l-1.8,0c-0.1-0.8-0.4-1-0.9-1c-0.6,0-1,0.6-1,1.7c0,1.2,0.4,1.8,1,1.8c0.4,0,0.8-0.3,0.9-1l1.8,0
		c-0.2,1.5-1.3,2.3-2.8,2.3c-1.6,0-2.8-1.1-2.8-3c0-2,1.3-3.1,2.9-3.1C86.6,25.4,87.5,26.5,87.6,27.8z"/>
	<path class="st33" d="M90.3,29.7l0,1.7l-1.9,0l0-8l1.9,0l0,4.6l1.9-2.4l2.2,0L92,28.2l2.4,3.1l-2.3,0l-1.5-2.2L90.3,29.7z"/>
</g>
</svg>
